<svg width="48" height="41" viewBox="0 0 48 41" fill="none" xmlns="http://www.w3.org/2000/svg">
<path d="M38.47 2.98956H9.53C6.206 2.98956 3.5 5.29923 3.5 8.14019V32.8615C3.5 35.7007 6.204 38.0121 9.53 38.0121H38.472C41.796 38.0121 44.502 35.7024 44.502 32.8615V8.14019C44.5 5.29923 41.796 2.98956 38.47 2.98956ZM42.088 32.8598C42.088 34.563 40.466 35.9501 38.47 35.9501H9.53C7.536 35.9501 5.912 34.5647 5.912 32.8598V29.1339L15.644 19.8969L28.79 30.1042L36.06 24.9297L42.09 29.221V32.8598H42.088ZM42.088 26.5406L36.058 22.2493L28.856 27.3743L15.474 16.9808L5.912 26.0555V8.14019C5.912 6.43698 7.534 5.04981 9.53 5.04981H38.472C40.466 5.04981 42.09 6.43527 42.09 8.14019V26.5406H42.088Z" fill="white"/>
<path d="M32.442 18.4397C35.766 18.4397 38.472 16.1301 38.472 13.2891C38.472 10.4482 35.768 8.13849 32.442 8.13849C29.118 8.13849 26.412 10.4482 26.412 13.2891C26.412 16.1301 29.116 18.4397 32.442 18.4397ZM32.442 10.2004C34.436 10.2004 36.06 11.5859 36.06 13.2908C36.06 14.9957 34.438 16.3812 32.442 16.3812C30.446 16.3812 28.824 14.9957 28.824 13.2908C28.824 11.5859 30.446 10.2004 32.442 10.2004Z" fill="white"/>
</svg>
